<?xml version="1.0" encoding="UTF-8"?><svg id="a" xmlns="http://www.w3.org/2000/svg" viewBox="0 0 100 100"><defs><style>.c{fill:none;stroke:#000;stroke-miterlimit:10;stroke-width:5px;}</style></defs><g id="b"><path class="c" d="M36.8889,34.8889l-9.2403-9.6026c-.7676-.7977-2.1161-.2576-2.128,.8494-.2017,18.8244-.0567,32.6725,.109,37.7162,.0455,1.3857,.166,4.2565,2.0741,6.8148,1.5625,2.095,3.5159,3.0646,4.5257,3.4716,.1435,.0578,.2944,.0839,.4491,.0839h20.6548"/><path class="c" d="M27.5196,21.5731c-4.6405,4.5067-9.0379,8.5976-13.6784,13.1043"/><path class="c" d="M65.799,62.5728l9.2403,9.6026c.7676,.7977,2.1161,.2576,2.128-.8494,.2017-18.8244,.0567-32.6725-.109-37.7162-.0455-1.3857-.166-4.2565-2.0741-6.8148-1.5625-2.095-3.5159-3.0646-4.5257-3.4716-.1435-.0578-.2944-.0839-.4491-.0839h-20.6548"/><path class="c" d="M75.1683,75.8886c4.6405-4.5067,9.0379-8.5976,13.6784-13.1043"/></g></svg>