<?xml version="1.0" encoding="UTF-8"?>
<svg id="Layer_2" data-name="Layer 2" xmlns="http://www.w3.org/2000/svg" viewBox="0 0 100 100">
  <defs>
    <style>
      .cls-1 {
        fill: #fff;
      }

      .cls-2 {
        fill: #1d9bf0;
      }
    </style>
  </defs>
  <path class="cls-2" d="M20.1277,37.0638c-5.3458,2.0586-8.8668,7.2233-8.8085,12.8936,.0563,5.4732,3.4372,10.4241,8.5532,12.5106-2.335,6.3925-.2981,13.3649,4.7234,16.9787,6.0056,4.322,13.1678,1.6005,13.6596,1.4043,2.2416,5.1664,7.226,8.5911,12.7408,8.7554,6.0008,.1788,11.5666-3.5346,13.8124-9.2661,5.1071,3.012,11.6577,2.1661,15.8298-2.0425,4.167-4.2034,4.9596-10.7507,1.9149-15.8298,5.6456-1.8715,9.4282-7.1872,9.3191-13.0213-.1031-5.5145-3.664-10.4641-8.9362-12.383,2.2447-5.4188,.8519-11.6776-3.4468-15.5745-4.1459-3.7584-10.2274-4.6243-15.3192-2.1702-1.9507-5.6595-7.3212-9.4137-13.1741-9.2682-5.4749,.1361-10.3894,3.6599-12.3578,8.8852-5.6725-2.2031-12.0714-.6972-15.9574,3.7021-3.4271,3.8797-4.4005,9.4446-2.5532,14.4255Z"/>
  <polygon class="cls-1" points="30.8298 51.7766 45.7021 66.6383 70.383 39.7447 64.2553 34.2979 45.2128 55.1915 36.3723 45.8723 30.8298 51.7766"/>
</svg>