<?xml version="1.0" encoding="UTF-8"?><svg id="a" xmlns="http://www.w3.org/2000/svg" viewBox="0 0 100 100"><defs><style>.e{fill:#fff;}.f{stroke-linejoin:bevel;}.f,.g{fill:none;stroke:#000;stroke-width:5px;}.g,.h{stroke-miterlimit:10;}.h{fill:#1d9bf0;stroke:#fff;stroke-width:2px;}</style></defs><g id="b"><g id="c"><path class="f" d="M28.5926,71.6518h55.6147c-2.2674-3.2318-5.1807-8.1744-6.8889-14.6667-2.8112-10.6847-1.8823-16.1559-3.9116-22.9451-2.9871-9.9933-11.8022-18.297-22.3106-18.8327-.6835-.0348-1.3471-.0348-2.0306,0-10.5085,.5357-18.6922,9.0502-22.3107,18.8327-2.6152,7.0701-1.2959,10.3677-2.1543,16.1924-.2572,1.7451-.871,3.9673-1.7573,6.7527-1.896,5.9588-4.4537,10.8491-6.8889,14.6667h18.8889"/><path class="g" d="M36,72.4444c-1.086,9.0364,6.347,16.5148,14,16.3333,7.4032-.1756,15.0081-7.493,14-16.2222-8.963-.037-19.037-.0741-28-.1111Z"/></g><g id="d"/></g><circle class="h" cx="70.99" cy="24.0249" r="16.4925"/><path class="e" d="M73.1709,29.3203h-2.6787v-8.5625h-3.3193v-2.0181c1.8672,.0566,3.5645-.6035,3.8662-2.6216h2.1318v13.2021Z"/></svg>