<?xml version="1.0" encoding="UTF-8"?><svg id="a" xmlns="http://www.w3.org/2000/svg" viewBox="0 0 100 100"><defs><style>.b,.c{stroke:#000;stroke-miterlimit:10;stroke-width:5px;}.c{fill:none;}</style></defs><path class="c" d="M73.73,69.05c-8.5252,8.5252-16.9604,14.4318-22.73,17.21-5.7726-2.7773-14.3963-8.8663-22.74-17.21-6.1475-6.1475-18.9255-21.708-14.48-37.27,.3199-1.12,4.61-15.29,16.78-16.84,7.77-.99,15.88,3.52,20.44,11.43,4.55-7.91,12.67-12.42,20.43-11.43,12.17,1.55,16.46,15.72,16.78,16.84,4.4457,15.5595-8.3291,31.1191-14.48,37.27Z"/><path class="b" d="M73.73,69.05c-8.5252,8.5252-16.9604,14.4318-22.73,17.21-5.7726-2.7773-14.3963-8.8663-22.74-17.21-6.1475-6.1475-18.9255-21.708-14.48-37.27,.3199-1.12,4.61-15.29,16.78-16.84,7.77-.99,15.88,3.52,20.44,11.43,4.55-7.91,12.67-12.42,20.43-11.43,12.17,1.55,16.46,15.72,16.78,16.84,4.4457,15.5595-8.3291,31.1191-14.48,37.27Z"/></svg>